<svg width="172" height="71" viewBox="0 0 172 71" fill="none" xmlns="http://www.w3.org/2000/svg">
<mask id="mask0_263_455" style="mask-type:luminance" maskUnits="userSpaceOnUse" x="91" y="47" width="5" height="24">
<path d="M91.3244 47.5473H95.444V70.7424H91.3244V47.5473Z" fill="white"/>
</mask>
<g mask="url(#mask0_263_455)">
<path d="M93.2843 68.3254V4.71341" stroke="#CD0F67" stroke-width="3.78282"/>
</g>
<mask id="mask1_263_455" style="mask-type:luminance" maskUnits="userSpaceOnUse" x="83" y="47" width="6" height="21">
<path d="M83.9091 47.5473H88.8526V67.4467H83.9091V47.5473Z" fill="white"/>
</mask>
<g mask="url(#mask1_263_455)">
<path d="M86.1748 64.93V1.39521" stroke="#CD0F67" stroke-width="3.78282"/>
</g>
<mask id="mask2_263_455" style="mask-type:luminance" maskUnits="userSpaceOnUse" x="18" y="47" width="50" height="13">
<path d="M18.8198 47.5473H67.4308V59.2076H18.8198V47.5473Z" fill="white"/>
</mask>
<g mask="url(#mask2_263_455)">
<path d="M67.331 14.3429H66.2496C65.3581 14.3429 64.5954 14.6261 63.9581 15.1925C63.3241 15.759 62.9894 16.467 62.9475 17.3167V41.9569C62.9475 47.145 61.3158 51.2549 58.0587 54.2899C54.7985 57.3248 50.3345 58.8407 44.6605 58.8407C37.979 58.8407 32.8553 57.357 29.299 54.3896C25.7426 51.4126 23.9661 47.293 23.9661 42.0277V17.5034C23.9242 16.2385 23.3513 15.3116 22.2506 14.7194C21.7389 14.4684 21.1918 14.3429 20.6028 14.3429H19.5826V13.7121H37.8696V14.3429H36.8558C35.9257 14.3429 35.1404 14.6261 34.5064 15.1925C33.8723 15.759 33.5312 16.4863 33.4861 17.3746V41.5127C33.4861 45.9831 34.5868 49.5266 36.7882 52.1367C38.9896 54.7501 42.0149 56.0568 45.861 56.0568C49.7134 56.0568 52.7645 54.8273 55.0045 52.3652C57.2509 49.8967 58.3967 46.556 58.4353 42.3431V17.3746C58.3484 16.1516 57.7755 15.2666 56.7199 14.7194C56.2178 14.4684 55.6707 14.3429 55.0753 14.3429H54.0615V13.7121H67.331V14.3429Z" fill="#010C52"/>
</g>
<mask id="mask3_263_455" style="mask-type:luminance" maskUnits="userSpaceOnUse" x="72" y="47" width="32" height="13">
<path d="M72.3743 47.5473H103.683V59.2076H72.3743V47.5473Z" fill="white"/>
</mask>
<g mask="url(#mask3_263_455)">
<path d="M72.4645 52.0788C72.4645 49.0438 73.1243 46.4498 74.4406 44.2967H75.0039C74.9652 44.6346 74.9459 44.9758 74.9459 45.3137C74.9459 48.2167 75.9919 50.756 78.0871 52.9253C80.1823 55.0977 83.0499 56.1855 86.6867 56.1855C89.5221 56.1855 91.7332 55.5096 93.3199 54.1611C94.9066 52.8126 95.7015 51.1069 95.7015 49.0374C95.7015 47.8209 95.3056 46.7266 94.5203 45.7578C93.7415 44.7859 92.4412 43.7109 90.6228 42.5298L79.5772 35.2626C75.4705 32.5269 73.4172 29.154 73.4172 25.1439C73.4172 24.7255 73.459 24.3039 73.5459 23.8823C73.797 20.5576 75.0972 17.8864 77.4434 15.8652C79.7961 13.8376 82.9405 12.8238 86.8766 12.8238C89.2003 12.8238 92.0808 13.0362 95.5116 13.4546H99.5089L98.685 22.7462H98.0509C98.0509 20.5544 97.2335 18.7972 95.6017 17.4744C93.9764 16.1452 91.8072 15.479 89.0973 15.479C85.7952 15.479 83.4072 16.4896 81.9267 18.5107C81.1639 19.4763 80.7874 20.4514 80.7874 21.4234C80.7874 22.3889 80.974 23.2096 81.3506 23.8823C81.946 24.983 83.2366 26.1609 85.2288 27.4257L97.3558 35.2626C101.166 37.7472 103.068 40.9914 103.068 44.9983C103.068 49.4622 101.533 52.8834 98.4693 55.2683C95.399 57.6499 91.3212 58.8407 86.2394 58.8407C83.3653 58.8407 80.7101 58.4899 78.277 57.7947C75.8439 57.0995 74.0544 56.1598 72.9119 54.9818C72.6158 54.1772 72.4645 53.2117 72.4645 52.0788Z" fill="#010C52"/>
</g>
<mask id="mask4_263_455" style="mask-type:luminance" maskUnits="userSpaceOnUse" x="103" y="47" width="51" height="12">
<path d="M103.683 47.5473H153.942V58.3837H103.683V47.5473Z" fill="white"/>
</mask>
<g mask="url(#mask4_263_455)">
<path d="M152.835 57.3216H153.408V57.9524H133.157V57.3216H133.724C134.657 57.3216 135.343 57.0384 135.787 56.4719C136.234 55.8991 136.459 55.3616 136.459 54.8531C136.459 54.3446 136.353 53.8425 136.144 53.3404L133.029 45.5615H118.172L114.87 53.3404C114.658 53.8908 114.555 54.4057 114.555 54.8917C114.555 55.3713 114.783 55.8991 115.25 56.4719C115.717 57.0384 116.418 57.3216 117.352 57.3216H117.857V57.9524H104.272V57.3216H104.835C105.814 57.3216 106.789 57.0287 107.761 56.443C108.733 55.8508 109.537 54.9593 110.171 53.7749L124.838 20.7218C126.827 16.5507 127.886 13.7893 128.011 12.4472H128.587L147.437 53.6558C148.075 54.8756 148.876 55.7896 149.848 56.4011C150.826 57.0126 151.821 57.3216 152.835 57.3216ZM119.254 42.9063H131.947L125.79 27.3549L119.254 42.9063Z" fill="#010C52"/>
</g>
<mask id="mask5_263_455" style="mask-type:luminance" maskUnits="userSpaceOnUse" x="24" y="47" width="121" height="2">
<path d="M24.5873 47.5473H144.879V48.4967H24.5873V47.5473Z" fill="white"/>
</mask>
<g mask="url(#mask5_263_455)">
<path d="M25.7813 47.5795L144.097 47.5795" stroke="#010C52" stroke-width="0.945704"/>
</g>
<mask id="mask6_263_455" style="mask-type:luminance" maskUnits="userSpaceOnUse" x="91" y="2" width="6" height="34">
<path d="M91.3244 2.35751H96.2679V35.8998H91.3244V2.35751Z" fill="white"/>
</mask>
<g mask="url(#mask6_263_455)">
<path d="M93.5998 68.4638V4.85499" stroke="#CD0F67" stroke-width="3.78282"/>
</g>
<mask id="mask7_263_455" style="mask-type:luminance" maskUnits="userSpaceOnUse" x="20" y="29" width="124" height="7">
<path d="M20.4677 29.5467H143.231V35.8998H20.4677V29.5467Z" fill="white"/>
</mask>
<g mask="url(#mask7_263_455)">
<path d="M26.1 35.5394L137.477 35.1403" stroke="#010C52" stroke-width="0.944951"/>
</g>
<mask id="mask8_263_455" style="mask-type:luminance" maskUnits="userSpaceOnUse" x="83" y="0" width="6" height="36">
<path d="M83.9091 0.220459H88.8526V35.8998H83.9091V0.220459Z" fill="white"/>
</mask>
<g mask="url(#mask8_263_455)">
<path d="M86.4935 65.0683V1.53357" stroke="#CD0F67" stroke-width="3.78282"/>
</g>
<mask id="mask9_263_455" style="mask-type:luminance" maskUnits="userSpaceOnUse" x="19" y="13" width="50" height="23">
<path d="M19.6438 13.0684H68.2548V35.8998H19.6438V13.0684Z" fill="white"/>
</mask>
<g mask="url(#mask9_263_455)">
<path d="M67.6498 14.4813H66.5684C65.6737 14.4813 64.9109 14.7645 64.2769 15.3309C63.6428 15.8974 63.3049 16.6054 63.2663 17.4551V42.0953C63.2663 47.2834 61.6345 51.3933 58.3775 54.4282C55.1173 57.4632 50.6501 58.9791 44.9792 58.9791C38.2946 58.9791 33.1709 57.4954 29.6177 54.528C26.0582 51.551 24.2816 47.4314 24.2816 42.1661V17.6417C24.243 16.3769 23.6701 15.45 22.5662 14.8578C22.0545 14.6068 21.5073 14.4813 20.9184 14.4813H19.8981V13.8504H38.1852V14.4813H37.1746C36.2412 14.4813 35.4592 14.7645 34.8219 15.3309C34.1879 15.8974 33.8467 16.6247 33.8017 17.513V41.6511C33.8017 46.1215 34.9024 49.665 37.1038 52.2751C39.3052 54.8885 42.3305 56.1951 46.1797 56.1951C50.0322 56.1951 53.08 54.9657 55.32 52.5036C57.5665 50.0351 58.7122 46.6944 58.7541 42.4815V17.513C58.6672 16.29 58.0943 15.4049 57.0387 14.8578C56.5334 14.6068 55.9862 14.4813 55.3908 14.4813H54.3802V13.8504H67.6498V14.4813Z" fill="#010C52"/>
</g>
<mask id="mask10_263_455" style="mask-type:luminance" maskUnits="userSpaceOnUse" x="72" y="12" width="32" height="24">
<path d="M72.3743 12.2445H103.683V35.8998H72.3743V12.2445Z" fill="white"/>
</mask>
<g mask="url(#mask10_263_455)">
<path d="M72.7831 52.2172C72.7831 49.1822 73.4397 46.5882 74.756 44.4351H75.3224C75.2806 44.773 75.2613 45.1142 75.2613 45.4521C75.2613 48.3551 76.3073 50.8944 78.4057 53.0669C80.5009 55.2361 83.3653 56.3239 87.0021 56.3239C89.8407 56.3239 92.0518 55.648 93.6384 54.2995C95.2251 52.951 96.0169 51.2452 96.0169 49.1758C96.0169 47.9592 95.6242 46.865 94.8389 45.8962C94.0568 44.9243 92.7566 43.8493 90.9414 42.6682L79.8926 35.4042C75.7859 32.6653 73.7358 29.2924 73.7358 25.2823C73.7358 24.8639 73.7776 24.4423 73.8645 24.0207C74.1123 20.696 75.4126 18.0247 77.762 16.0036C80.1147 13.976 83.2558 12.9622 87.192 12.9622C89.5157 12.9622 92.3994 13.1746 95.8302 13.593H99.8242L99.0035 22.8846H98.3695C98.3695 20.6928 97.5488 18.9356 95.9171 17.6128C94.2918 16.2836 92.1226 15.6174 89.4127 15.6174C86.1138 15.6174 83.7225 16.6279 82.242 18.6491C81.4825 19.6146 81.1027 20.5898 81.1027 21.5618C81.1027 22.5273 81.2926 23.348 81.6692 24.0207C82.2646 25.1214 83.5551 26.2993 85.5441 27.5641L97.6743 35.4042C101.482 37.8856 103.387 41.1298 103.387 45.1367C103.387 49.6006 101.852 53.025 98.7847 55.4066C95.7143 57.7883 91.6398 58.9791 86.5579 58.9791C83.6807 58.9791 81.0255 58.6283 78.5924 57.9331C76.1592 57.2379 74.373 56.2982 73.2273 55.1202C72.9312 54.3156 72.7831 53.3501 72.7831 52.2172Z" fill="#010C52"/>
</g>
<mask id="mask11_263_455" style="mask-type:luminance" maskUnits="userSpaceOnUse" x="104" y="12" width="50" height="24">
<path d="M104.507 12.2445H153.942V35.8998H104.507V12.2445Z" fill="white"/>
</mask>
<g mask="url(#mask11_263_455)">
<path d="M153.15 57.46H153.726V58.0908H133.476V57.46H134.039C134.973 57.46 135.658 57.1768 136.102 56.6103C136.553 56.0375 136.778 55.5 136.778 54.9915C136.778 54.4862 136.672 53.9809 136.459 53.4788L133.347 45.6999H118.491L115.189 53.4788C114.977 54.0292 114.87 54.5441 114.87 55.0301C114.87 55.5129 115.102 56.0375 115.565 56.6103C116.035 57.1768 116.737 57.46 117.667 57.46H118.172V58.0908H104.587V57.46H105.154C106.132 57.46 107.107 57.1671 108.079 56.5814C109.051 55.9892 109.853 55.0977 110.487 53.9133L125.156 20.8602C127.142 16.6891 128.201 13.9277 128.33 12.5856H128.903L147.756 53.7975C148.39 55.014 149.195 55.928 150.167 56.5395C151.142 57.1543 152.14 57.46 153.15 57.46ZM119.572 43.0447H132.266L126.106 27.4933L119.572 43.0447Z" fill="#010C52"/>
</g>
<mask id="mask12_263_455" style="mask-type:luminance" maskUnits="userSpaceOnUse" x="64" y="0" width="45" height="36">
<path d="M64.959 0.220459H108.627V35.8998H64.959V0.220459Z" fill="white"/>
</mask>
<g mask="url(#mask12_263_455)">
<path d="M86.5804 41.1105L86.4935 19.1448" stroke="#CD0F67" stroke-width="3.78281"/>
</g>
<path d="M93.5966 19.1319V12.238" stroke="#CD0F67" stroke-width="3.78282"/>
<path d="M6.42396 38.903H6.29522C6.16649 38.903 6.05706 38.9416 5.97338 39.0189C5.89614 39.0897 5.85108 39.183 5.84464 39.3021V42.5334C5.84464 43.2382 5.62901 43.7918 5.20096 44.1941C4.76969 44.59 4.13245 44.7863 3.28278 44.7863C2.43312 44.7863 1.77013 44.5932 1.30024 44.207C0.827133 43.8143 0.592189 43.2608 0.592189 42.5463V39.315C0.592189 39.1959 0.543912 39.0961 0.450578 39.0189C0.363681 38.9416 0.260691 38.903 0.14161 38.903H0V38.8H2.57473V38.903H2.43312C2.31082 38.903 2.20783 38.9416 2.12415 39.0189C2.03726 39.0961 1.99542 39.1959 1.99542 39.315V42.4819C1.99542 43.0837 2.13059 43.5569 2.40738 43.898C2.6906 44.2327 3.08002 44.4001 3.57888 44.4001C4.07451 44.4001 4.47038 44.2424 4.76326 43.9238C5.05291 43.5987 5.20096 43.1513 5.20096 42.5849V39.315C5.19131 39.1862 5.14303 39.0897 5.05935 39.0189C4.97245 38.9416 4.86946 38.903 4.75038 38.903H4.62165V38.8H6.42396V38.903Z" fill="#010A43"/>
<path d="M15.4296 38.8H18.1717V38.903H18.0043C17.8563 38.903 17.734 38.9513 17.631 39.0446C17.5344 39.1315 17.4829 39.2474 17.4765 39.3922V43.6534C17.4765 44.0589 17.5022 44.3872 17.5537 44.6447L17.5666 44.7863H17.4894L13.0093 40.8341V44.0654C13.0093 44.2038 13.0608 44.3196 13.1638 44.4129C13.2668 44.5095 13.3891 44.5546 13.5371 44.5546H13.7045V44.6575H10.9753V44.5546H11.1298C11.2746 44.5546 11.4001 44.5095 11.5031 44.4129C11.6125 44.3196 11.6705 44.2038 11.6705 44.0654V39.7656C11.6705 39.3793 11.6447 39.0575 11.5932 38.8L11.5675 38.6713H11.6576L16.1247 42.6106V39.3922C16.1247 39.257 16.0733 39.1412 15.9703 39.0446C15.8737 38.9513 15.7514 38.903 15.5969 38.903H15.4296V38.8Z" fill="#010A43"/>
<path d="M22.8628 44.5546H22.9787C23.1331 44.5546 23.2651 44.5095 23.3777 44.413C23.4872 44.31 23.5451 44.1877 23.5451 44.0396V39.418C23.5451 39.2731 23.4872 39.1541 23.3777 39.0575C23.2651 38.9545 23.1331 38.903 22.9787 38.903H22.8628V38.8H25.6306V38.903H25.5148C25.3667 38.903 25.238 38.9545 25.1286 39.0575C25.0159 39.1541 24.9548 39.2699 24.9483 39.4051V44.0396C24.9548 44.1941 25.0159 44.3196 25.1286 44.413C25.238 44.5095 25.3667 44.5546 25.5148 44.5546H25.6306V44.6576H22.8628V44.5546Z" fill="#010A43"/>
<path d="M37.6128 45.43C38.308 45.6939 38.9935 45.8291 39.6726 45.8291C40.3581 45.8291 40.9471 45.6295 41.4363 45.2369L41.4749 45.2755C41.4556 45.7647 41.2496 46.1799 40.857 46.5242C40.4193 46.8847 39.8657 47.0649 39.1963 47.0649C38.5333 47.0649 37.8059 46.8718 37.0078 46.4856C36.7149 46.3311 36.3544 46.1026 35.9264 45.8033C35.4951 45.5104 35.1186 45.2755 34.7935 45.0953C34.4749 44.915 34.1627 44.812 33.8537 44.7863H33.828C32.8045 44.7863 31.9903 44.5127 31.382 43.9624C30.7705 43.4152 30.468 42.6718 30.468 41.7352C30.468 40.7922 30.7705 40.0456 31.382 39.4952C31.9903 38.9481 32.8013 38.6713 33.8151 38.6713C34.8353 38.6713 35.656 38.9481 36.274 39.4952C36.8919 40.0456 37.2009 40.7922 37.2009 41.7352C37.2009 42.7072 36.8694 43.47 36.2096 44.0267C35.891 44.2842 35.5144 44.4773 35.0767 44.6061C35.5305 44.6994 35.9425 44.8153 36.3126 44.9536C36.6892 45.0888 37.1236 45.2497 37.6128 45.43ZM31.9613 41.7352C31.9613 42.5527 32.1287 43.1996 32.4634 43.6792C32.7981 44.1619 33.2519 44.4001 33.828 44.4001C34.4009 44.4001 34.8579 44.1651 35.1926 43.692C35.5273 43.2125 35.6947 42.5591 35.6947 41.7352C35.6947 40.9113 35.5273 40.2644 35.1926 39.7913C34.8579 39.3118 34.4009 39.0704 33.828 39.0704C33.4482 39.0704 33.1199 39.1798 32.8367 39.3922C32.5535 39.5982 32.3346 39.9072 32.1802 40.3191C32.0321 40.7246 31.9613 41.1945 31.9613 41.7352Z" fill="#010A43"/>
<path d="M48.4336 38.903H48.3048C48.1761 38.903 48.0667 38.9416 47.983 39.0189C47.9058 39.0897 47.8607 39.183 47.8543 39.3021V42.5334C47.8543 43.2382 47.6386 43.7918 47.2106 44.1941C46.7793 44.59 46.1421 44.7863 45.2924 44.7863C44.4427 44.7863 43.7797 44.5932 43.3099 44.207C42.8367 43.8143 42.6018 43.2608 42.6018 42.5463V39.315C42.6018 39.1959 42.5535 39.0961 42.4602 39.0189C42.3733 38.9416 42.2703 38.903 42.1512 38.903H42.0096V38.8H44.5843V38.903H44.4427C44.3204 38.903 44.2174 38.9416 44.1338 39.0189C44.0469 39.0961 44.005 39.1959 44.005 39.315V42.4819C44.005 43.0837 44.1402 43.5569 44.417 43.898C44.7002 44.2327 45.0896 44.4001 45.5885 44.4001C46.0841 44.4001 46.48 44.2424 46.7729 43.9238C47.0625 43.5987 47.2106 43.1513 47.2106 42.5849V39.315C47.2009 39.1862 47.1526 39.0897 47.069 39.0189C46.9821 38.9416 46.8791 38.903 46.76 38.903H46.6313V38.8H48.4336V38.903Z" fill="#010A43"/>
<path d="M57.7097 44.6575H53.1138V44.5546H53.2296C53.3745 44.5546 53.5 44.5095 53.603 44.4129C53.706 44.3196 53.7607 44.2005 53.7703 44.0525V39.4051C53.7607 39.2699 53.706 39.1541 53.603 39.0575C53.5 38.9545 53.3745 38.903 53.2296 38.903H53.1138V38.8H56.551C56.7216 38.8 56.9115 38.7872 57.1175 38.7614C57.3299 38.7292 57.4779 38.6938 57.5552 38.6584V40.2033H57.4651V40.126C57.4651 39.8364 57.3814 39.6078 57.2205 39.4437C57.066 39.2828 56.8504 39.1991 56.5768 39.1991H55.1736V41.5679H56.2807C56.5028 41.5614 56.683 41.4874 56.8214 41.349C56.9566 41.2042 57.0274 41.0207 57.0274 40.7954V40.7311H57.1175V42.7909H57.0274V42.7265C57.0274 42.4175 56.9115 42.1955 56.6798 42.0571C56.5671 41.9895 56.4384 41.9541 56.2936 41.9541H55.1736V44.2713H56.3451C56.7474 44.2649 57.0917 44.1394 57.375 43.898C57.6582 43.6502 57.8642 43.3058 57.9929 42.8681H58.083L57.7097 44.6575Z" fill="#010A43"/>
<path d="M75.5284 44.5546H75.6056V44.6575H72.7348V44.5546H72.812C72.9472 44.5546 73.0438 44.5159 73.0953 44.4387C73.1532 44.3614 73.1854 44.2939 73.1854 44.2327C73.1854 44.1651 73.1725 44.0975 73.1468 44.0267L72.7734 43.1256H70.7008L70.3146 44.0267C70.2888 44.0975 70.2759 44.1651 70.2759 44.2327C70.2759 44.3035 70.3049 44.3743 70.3661 44.4516C70.424 44.5224 70.5205 44.5546 70.6493 44.5546H70.7265V44.6575H68.7826V44.5546H68.8598C68.9982 44.5546 69.1302 44.5159 69.2589 44.4387C69.3941 44.355 69.5067 44.2263 69.5936 44.0525L71.6148 39.7141C71.898 39.0704 72.0461 38.6777 72.0654 38.5297H72.1555L74.7688 44.0139C74.8525 44.2037 74.9652 44.3421 75.1036 44.4258C75.2387 44.5127 75.3803 44.5546 75.5284 44.5546ZM70.8681 42.7394H72.6061L71.7435 40.7053L70.8681 42.7394Z" fill="#010A43"/>
<path d="M83.3179 44.7863C82.2172 44.7766 81.3546 44.5095 80.7302 43.9752C80.1123 43.4346 79.8033 42.6879 79.8033 41.7352C79.8033 40.7761 80.1123 40.023 80.7302 39.4823C81.3546 38.9416 82.2172 38.6713 83.3179 38.6713C84.174 38.6713 84.9045 38.8226 85.5064 39.1219V40.6796H85.442C85.2779 40.0971 85.0236 39.6851 84.6825 39.4437C84.3477 39.1959 83.9229 39.0704 83.408 39.0704C82.7192 39.0704 82.1914 39.3085 81.8245 39.7784C81.464 40.2515 81.2838 40.8952 81.2838 41.7095C81.2838 42.527 81.464 43.1739 81.8245 43.6534C82.1914 44.1523 82.6935 44.4001 83.3307 44.4001C83.7942 44.4001 84.174 44.3293 84.4765 44.1812C84.7758 44.0364 85.0107 43.8079 85.1845 43.4989C85.3648 43.1835 85.4967 42.7522 85.5836 42.2116H85.648L85.7639 43.6792C85.5579 44.0139 85.2489 44.2842 84.8369 44.4902C84.425 44.6865 83.9165 44.7863 83.3179 44.7863Z" fill="#010A43"/>
<path d="M94.1301 44.7863C93.0294 44.7766 92.1668 44.5095 91.5425 43.9752C90.9245 43.4346 90.6156 42.6879 90.6156 41.7352C90.6156 40.7761 90.9245 40.023 91.5425 39.4823C92.1668 38.9416 93.0294 38.6713 94.1301 38.6713C94.9862 38.6713 95.7168 38.8226 96.3186 39.1219V40.6796H96.2542C96.0901 40.0971 95.8358 39.6851 95.4947 39.4437C95.16 39.1959 94.7351 39.0704 94.2202 39.0704C93.5315 39.0704 93.0036 39.3085 92.6367 39.7784C92.2763 40.2515 92.096 40.8952 92.096 41.7095C92.096 42.527 92.2763 43.1739 92.6367 43.6534C93.0036 44.1523 93.5057 44.4001 94.143 44.4001C94.6064 44.4001 94.9862 44.3293 95.2887 44.1812C95.588 44.0364 95.823 43.8079 95.9968 43.4989C96.177 43.1835 96.3089 42.7522 96.3958 42.2116H96.4602L96.5761 43.6792C96.3701 44.0139 96.0611 44.2842 95.6492 44.4902C95.2372 44.6865 94.7287 44.7863 94.1301 44.7863Z" fill="#010A43"/>
<path d="M101.441 41.7352C101.441 40.7922 101.753 40.0456 102.38 39.4952C103.005 38.9481 103.838 38.6713 104.878 38.6713C105.924 38.6713 106.761 38.9481 107.388 39.4952C108.022 40.0456 108.341 40.7922 108.341 41.7352C108.341 42.6718 108.022 43.4152 107.388 43.9624C106.761 44.5127 105.927 44.7863 104.891 44.7863C103.851 44.7863 103.014 44.5127 102.38 43.9624C101.753 43.4152 101.441 42.6718 101.441 41.7352ZM102.934 41.7352C102.934 42.5527 103.108 43.1996 103.462 43.6792C103.813 44.1619 104.286 44.4001 104.878 44.4001C105.476 44.4001 105.953 44.1619 106.307 43.6792C106.658 43.1996 106.835 42.5527 106.835 41.7352C106.835 40.9113 106.658 40.2644 106.307 39.7913C105.953 39.3118 105.476 39.0704 104.878 39.0704C104.286 39.0704 103.813 39.3118 103.462 39.7913C103.108 40.2644 102.934 40.9113 102.934 41.7352Z" fill="#010A43"/>
<path d="M119.514 38.903H119.385C119.256 38.903 119.147 38.9416 119.063 39.0189C118.986 39.0897 118.941 39.183 118.934 39.3021V42.5334C118.934 43.2382 118.719 43.7918 118.291 44.1941C117.859 44.59 117.222 44.7863 116.372 44.7863C115.523 44.7863 114.86 44.5932 114.39 44.207C113.917 43.8143 113.682 43.2608 113.682 42.5463V39.315C113.682 39.1959 113.634 39.0961 113.54 39.0189C113.453 38.9416 113.35 38.903 113.231 38.903H113.09V38.8H115.664V38.903H115.523C115.4 38.903 115.297 38.9416 115.214 39.0189C115.127 39.0961 115.085 39.1959 115.085 39.315V42.4819C115.085 43.0837 115.22 43.5569 115.497 43.898C115.78 44.2327 116.17 44.4001 116.669 44.4001C117.164 44.4001 117.56 44.2424 117.853 43.9238C118.143 43.5987 118.291 43.1513 118.291 42.5849V39.315C118.281 39.1862 118.233 39.0897 118.149 39.0189C118.062 38.9416 117.959 38.903 117.84 38.903H117.711V38.8H119.514V38.903Z" fill="#010A43"/>
<path d="M128.519 38.8H131.261V38.903H131.094C130.946 38.903 130.824 38.9513 130.721 39.0446C130.624 39.1315 130.573 39.2474 130.566 39.3922V43.6534C130.566 44.0589 130.592 44.3872 130.643 44.6447L130.656 44.7863H130.579L126.099 40.8341V44.0654C126.099 44.2038 126.151 44.3196 126.253 44.4129C126.356 44.5095 126.479 44.5546 126.627 44.5546H126.794V44.6575H124.065V44.5546H124.219C124.364 44.5546 124.49 44.5095 124.593 44.4129C124.702 44.3196 124.76 44.2038 124.76 44.0654V39.7656C124.76 39.3793 124.734 39.0575 124.683 38.8L124.657 38.6713H124.747L129.214 42.6106V39.3922C129.214 39.257 129.163 39.1412 129.06 39.0446C128.963 38.9513 128.841 38.903 128.687 38.903H128.519V38.8Z" fill="#010A43"/>
<path d="M141.269 40.1904V40.1003C141.269 39.8171 141.185 39.5982 141.025 39.4437C140.87 39.2828 140.654 39.1959 140.381 39.1862H139.248V44.0525C139.254 44.2005 139.312 44.3196 139.415 44.413C139.518 44.5095 139.641 44.5546 139.789 44.5546H139.892V44.6576H137.201V44.5546H137.291C137.446 44.5546 137.574 44.5095 137.677 44.413C137.78 44.3196 137.832 44.1941 137.832 44.0396V39.1862H136.712C136.429 39.1959 136.203 39.2828 136.042 39.4437C135.888 39.5982 135.811 39.8171 135.811 40.1003V40.1904H135.721V38.6456C135.804 38.681 135.952 38.7164 136.158 38.7485C136.371 38.7743 136.564 38.7872 136.738 38.7872H140.342C140.625 38.7872 140.857 38.7711 141.037 38.7357C141.224 38.6938 141.333 38.6649 141.359 38.6456V40.1904H141.269Z" fill="#010A43"/>
<path d="M145.955 44.5546H146.071C146.225 44.5546 146.357 44.5095 146.47 44.413C146.579 44.31 146.637 44.1877 146.637 44.0396V39.418C146.637 39.2731 146.579 39.1541 146.47 39.0575C146.357 38.9545 146.225 38.903 146.071 38.903H145.955V38.8H148.723V38.903H148.607C148.459 38.903 148.33 38.9545 148.221 39.0575C148.108 39.1541 148.047 39.2699 148.04 39.4051V44.0396C148.047 44.1941 148.108 44.3196 148.221 44.413C148.33 44.5095 148.459 44.5546 148.607 44.5546H148.723V44.6576H145.955V44.5546Z" fill="#010A43"/>
<path d="M157.873 38.8H160.615V38.903H160.447C160.299 38.903 160.177 38.9513 160.074 39.0446C159.977 39.1315 159.926 39.2474 159.919 39.3922V43.6534C159.919 44.0589 159.945 44.3872 159.997 44.6447L160.01 44.7863H159.932L155.452 40.8341V44.0654C155.452 44.2038 155.504 44.3196 155.607 44.4129C155.71 44.5095 155.832 44.5546 155.98 44.5546H156.147V44.6575H153.418V44.5546H153.573C153.718 44.5546 153.843 44.5095 153.946 44.4129C154.055 44.3196 154.113 44.2038 154.113 44.0654V39.7656C154.113 39.3793 154.088 39.0575 154.036 38.8L154.01 38.6713H154.101L158.568 42.6106V39.3922C158.568 39.257 158.516 39.1412 158.413 39.0446C158.317 38.9513 158.194 38.903 158.04 38.903H157.873V38.8Z" fill="#010A43"/>
<path d="M166.168 43.9624C165.592 43.4217 165.306 42.675 165.306 41.7224C165.306 40.7697 165.592 40.023 166.168 39.4823C166.751 38.9416 167.552 38.6713 168.576 38.6713C169.039 38.6713 169.49 38.7164 169.927 38.8C170.372 38.8773 170.729 38.9867 170.996 39.1219V40.6796H170.919C170.635 39.6079 169.953 39.0704 168.872 39.0704C168.193 39.0704 167.678 39.3085 167.327 39.7784C166.973 40.2515 166.799 40.9081 166.799 41.7481C166.799 42.5913 166.957 43.2414 167.275 43.7049C167.6 44.1683 168.061 44.4001 168.653 44.4001C168.978 44.4001 169.271 44.3228 169.528 44.1683C169.786 44.0139 169.956 43.795 170.043 43.5118L170.056 42.3403C170.056 42.2116 170.017 42.115 169.94 42.0442C169.863 41.9766 169.76 41.9412 169.631 41.9412H169.49V41.864H172V41.9412H171.884C171.591 41.9412 171.446 42.0764 171.446 42.3403V43.6405C171.221 43.9334 170.841 44.2005 170.301 44.4387C169.76 44.6704 169.168 44.7863 168.524 44.7863C167.536 44.7766 166.751 44.5031 166.168 43.9624Z" fill="#010A43"/>
</svg>
