<svg width="172" height="72" viewBox="0 0 172 72" fill="none" xmlns="http://www.w3.org/2000/svg">
<mask id="mask0_379_120" style="mask-type:luminance" maskUnits="userSpaceOnUse" x="91" y="47" width="5" height="25">
<path d="M91.3244 47.8681H95.444V71.2205H91.3244V47.8681Z" fill="white"/>
</mask>
<g mask="url(#mask0_379_120)">
<path d="M93.2843 68.7871V4.74385" stroke="#CD0F67" stroke-width="3.78282"/>
</g>
<mask id="mask1_379_120" style="mask-type:luminance" maskUnits="userSpaceOnUse" x="83" y="47" width="6" height="21">
<path d="M83.9092 47.8681H88.8527V67.9025H83.9092V47.8681Z" fill="white"/>
</mask>
<g mask="url(#mask1_379_120)">
<path d="M86.1749 65.3686V1.40318" stroke="#CD0F67" stroke-width="3.78282"/>
</g>
<mask id="mask2_379_120" style="mask-type:luminance" maskUnits="userSpaceOnUse" x="18" y="47" width="50" height="13">
<path d="M18.8198 47.8681H67.4308V59.6075H18.8198V47.8681Z" fill="white"/>
</mask>
<g mask="url(#mask2_379_120)">
<path d="M67.331 14.4386H66.2496C65.3581 14.4386 64.5954 14.7238 63.9581 15.294C63.3241 15.8643 62.9894 16.5772 62.9475 17.4326V42.2398C62.9475 47.4631 61.3158 51.6008 58.0587 54.6564C54.7985 57.7119 50.3345 59.2381 44.6605 59.2381C37.979 59.2381 32.8553 57.7443 29.299 54.7568C25.7426 51.7596 23.9661 47.6121 23.9661 42.3111V17.6205C23.9242 16.3471 23.3513 15.4139 22.2506 14.8177C21.7389 14.565 21.1918 14.4386 20.6028 14.4386H19.5826V13.8035H37.8696V14.4386H36.8558C35.9257 14.4386 35.1404 14.7238 34.5064 15.294C33.8723 15.8643 33.5312 16.5966 33.4861 17.4909V41.7927C33.4861 46.2933 34.5868 49.8608 36.7882 52.4887C38.9896 55.1197 42.0149 56.4353 45.861 56.4353C49.7134 56.4353 52.7645 55.1975 55.0045 52.7187C57.2509 50.2335 58.3967 46.8701 58.4353 42.6286V17.4909C58.3484 16.2596 57.7755 15.3686 56.7199 14.8177C56.2178 14.565 55.6707 14.4386 55.0753 14.4386H54.0615V13.8035H67.331V14.4386Z" fill="#E7E7E7"/>
</g>
<mask id="mask3_379_120" style="mask-type:luminance" maskUnits="userSpaceOnUse" x="72" y="47" width="32" height="13">
<path d="M72.3743 47.8681H103.683V59.6075H72.3743V47.8681Z" fill="white"/>
</mask>
<g mask="url(#mask3_379_120)">
<path d="M72.4645 52.4304C72.4645 49.3748 73.1243 46.7632 74.4406 44.5955H75.0039C74.9652 44.9357 74.9459 45.2792 74.9459 45.6194C74.9459 48.5421 75.9919 51.0986 78.0871 53.2825C80.1823 55.4697 83.0499 56.5649 86.6867 56.5649C89.5221 56.5649 91.7332 55.8844 93.3199 54.5268C94.9066 53.1691 95.7015 51.4518 95.7015 49.3683C95.7015 48.1435 95.3056 47.0419 94.5203 46.0665C93.7415 45.088 92.4412 44.0058 90.6228 42.8166L79.5772 35.5001C75.4705 32.7459 73.4172 29.3502 73.4172 25.3128C73.4172 24.8916 73.459 24.4671 73.5459 24.0427C73.797 20.6955 75.0972 18.0061 77.4434 15.9712C79.7961 13.9299 82.9405 12.9092 86.8766 12.9092C89.2003 12.9092 92.0808 13.1231 95.5116 13.5443H99.5089L98.685 22.8989H98.0509C98.0509 20.6923 97.2335 18.9231 95.6017 17.5914C93.9764 16.2531 91.8072 15.5824 89.0973 15.5824C85.7952 15.5824 83.4072 16.5999 81.9267 18.6347C81.1639 19.6068 80.7874 20.5886 80.7874 21.5671C80.7874 22.5392 80.974 23.3655 81.3506 24.0427C81.946 25.1508 83.2366 26.3368 85.2288 27.6102L97.3558 35.5001C101.166 38.0016 103.068 41.2678 103.068 45.3018C103.068 49.796 101.533 53.2404 98.4693 55.6414C95.399 58.0392 91.3212 59.2381 86.2394 59.2381C83.3653 59.2381 80.7101 58.8849 78.277 58.185C75.8439 57.4851 74.0544 56.539 72.9119 55.3531C72.6158 54.543 72.4645 53.5709 72.4645 52.4304Z" fill="#E7E7E7"/>
</g>
<mask id="mask4_379_120" style="mask-type:luminance" maskUnits="userSpaceOnUse" x="103" y="47" width="51" height="12">
<path d="M103.683 47.8681H153.942V58.778H103.683V47.8681Z" fill="white"/>
</mask>
<g mask="url(#mask4_379_120)">
<path d="M152.835 57.7087H153.408V58.3438H133.157V57.7087H133.724C134.657 57.7087 135.343 57.4236 135.787 56.8533C136.234 56.2765 136.459 55.7354 136.459 55.2234C136.459 54.7115 136.353 54.206 136.144 53.7005L133.029 45.8689H118.172L114.87 53.7005C114.658 54.2546 114.555 54.773 114.555 55.2623C114.555 55.7451 114.783 56.2765 115.25 56.8533C115.717 57.4236 116.418 57.7087 117.352 57.7087H117.857V58.3438H104.272V57.7087H104.835C105.814 57.7087 106.789 57.4138 107.761 56.8241C108.733 56.2279 109.537 55.3304 110.171 54.138L124.838 20.8608C126.827 16.6614 127.886 13.8813 128.011 12.5301H128.587L147.437 54.0181C148.075 55.2461 148.876 56.1663 149.848 56.782C150.826 57.3976 151.821 57.7087 152.835 57.7087ZM119.254 43.1957H131.947L125.79 27.5389L119.254 43.1957Z" fill="#E7E7E7"/>
</g>
<mask id="mask5_379_120" style="mask-type:luminance" maskUnits="userSpaceOnUse" x="24" y="47" width="121" height="2">
<path d="M24.5873 47.8681H144.879V48.824H24.5873V47.8681Z" fill="white"/>
</mask>
<g mask="url(#mask5_379_120)">
<path d="M25.7813 47.9003L144.097 47.9003" stroke="#E7E7E7" stroke-width="0.945704"/>
</g>
<mask id="mask6_379_120" style="mask-type:luminance" maskUnits="userSpaceOnUse" x="91" y="2" width="6" height="35">
<path d="M91.3244 2.37199H96.2679V36.1417H91.3244V2.37199Z" fill="white"/>
</mask>
<g mask="url(#mask6_379_120)">
<path d="M93.5998 68.9264V4.88641" stroke="#CD0F67" stroke-width="3.78282"/>
</g>
<mask id="mask7_379_120" style="mask-type:luminance" maskUnits="userSpaceOnUse" x="20" y="29" width="124" height="8">
<path d="M20.4677 29.7455H143.231V36.1417H20.4677V29.7455Z" fill="white"/>
</mask>
<g mask="url(#mask7_379_120)">
<path d="M26.0996 36.0008L137.477 36" stroke="#E7E7E7" stroke-width="0.944951"/>
</g>
<mask id="mask8_379_120" style="mask-type:luminance" maskUnits="userSpaceOnUse" x="83" y="0" width="6" height="37">
<path d="M83.9092 0.220459H88.8527V36.1417H83.9092V0.220459Z" fill="white"/>
</mask>
<g mask="url(#mask8_379_120)">
<path d="M86.4935 65.5079V1.54248" stroke="#CD0F67" stroke-width="3.78282"/>
</g>
<mask id="mask9_379_120" style="mask-type:luminance" maskUnits="userSpaceOnUse" x="19" y="13" width="50" height="24">
<path d="M19.6438 13.1555H68.2548V36.1417H19.6438V13.1555Z" fill="white"/>
</mask>
<g mask="url(#mask9_379_120)">
<path d="M67.6498 14.5779H66.5684C65.6737 14.5779 64.9109 14.8631 64.2769 15.4333C63.6428 16.0036 63.3049 16.7165 63.2663 17.5719V42.3791C63.2663 47.6024 61.6345 51.7402 58.3775 54.7957C55.1173 57.8512 50.6501 59.3774 44.9792 59.3774C38.2946 59.3774 33.1709 57.8836 29.6177 54.8961C26.0582 51.8989 24.2816 47.7514 24.2816 42.4504V17.7598C24.243 16.4864 23.6701 15.5532 22.5662 14.957C22.0545 14.7043 21.5073 14.5779 20.9184 14.5779H19.8981V13.9428H38.1852V14.5779H37.1746C36.2412 14.5779 35.4592 14.8631 34.8219 15.4333C34.1879 16.0036 33.8467 16.7359 33.8017 17.6302V41.932C33.8017 46.4327 34.9024 50.0002 37.1038 52.628C39.3052 55.2591 42.3305 56.5746 46.1797 56.5746C50.0322 56.5746 53.08 55.3368 55.32 52.858C57.5665 50.3728 58.7122 47.0094 58.7541 42.768V17.6302C58.6672 16.3989 58.0943 15.5079 57.0387 14.957C56.5334 14.7043 55.9862 14.5779 55.3908 14.5779H54.3802V13.9428H67.6498V14.5779Z" fill="#E7E7E7"/>
</g>
<mask id="mask10_379_120" style="mask-type:luminance" maskUnits="userSpaceOnUse" x="72" y="12" width="32" height="25">
<path d="M72.3743 12.326H103.683V36.1417H72.3743V12.326Z" fill="white"/>
</mask>
<g mask="url(#mask10_379_120)">
<path d="M72.7831 52.5697C72.7831 49.5141 73.4397 46.9025 74.756 44.7348H75.3225C75.2806 45.075 75.2613 45.4185 75.2613 45.7587C75.2613 48.6814 76.3073 51.238 78.4057 53.4251C80.5009 55.609 83.3653 56.7042 87.0021 56.7042C89.8407 56.7042 92.0518 56.0238 93.6385 54.6661C95.2252 53.3085 96.0169 51.5911 96.0169 49.5077C96.0169 48.2829 95.6242 47.1812 94.8389 46.2059C94.0569 45.2273 92.7566 44.1451 90.9414 42.9559L79.8926 35.6427C75.7859 32.8853 73.7358 29.4895 73.7358 25.4522C73.7358 25.0309 73.7776 24.6065 73.8645 24.182C74.1123 20.8348 75.4126 18.1454 77.762 16.1106C80.1147 14.0692 83.2559 13.0486 87.192 13.0486C89.5157 13.0486 92.3994 13.2624 95.8302 13.6836H99.8243L99.0036 23.0382H98.3696C98.3696 20.8316 97.5489 19.0624 95.9171 17.7307C94.2918 16.3925 92.1226 15.7217 89.4127 15.7217C86.1138 15.7217 83.7225 16.7392 82.2421 18.774C81.4825 19.7461 81.1027 20.7279 81.1027 21.7065C81.1027 22.6785 81.2926 23.5048 81.6692 24.182C82.2646 25.2902 83.5552 26.4761 85.5442 27.7495L97.6744 35.6427C101.482 38.1409 103.387 41.4071 103.387 45.4412C103.387 49.9354 101.852 53.383 98.7847 55.7808C95.7144 58.1785 91.6398 59.3774 86.558 59.3774C83.6807 59.3774 81.0255 59.0242 78.5924 58.3243C76.1593 57.6245 74.373 56.6783 73.2273 55.4924C72.9312 54.6823 72.7831 53.7102 72.7831 52.5697Z" fill="#E7E7E7"/>
</g>
<mask id="mask11_379_120" style="mask-type:luminance" maskUnits="userSpaceOnUse" x="104" y="12" width="50" height="25">
<path d="M104.507 12.326H153.942V36.1417H104.507V12.326Z" fill="white"/>
</mask>
<g mask="url(#mask11_379_120)">
<path d="M153.15 57.848H153.726V58.4831H133.476V57.848H134.039C134.973 57.848 135.658 57.5629 136.102 56.9926C136.553 56.4158 136.778 55.8747 136.778 55.3628C136.778 54.8541 136.672 54.3453 136.459 53.8399L133.347 46.0082H118.491L115.189 53.8399C114.977 54.3939 114.87 54.9124 114.87 55.4017C114.87 55.8877 115.102 56.4158 115.565 56.9926C116.035 57.5629 116.737 57.848 117.667 57.848H118.172V58.4831H104.587V57.848H105.154C106.132 57.848 107.107 57.5532 108.079 56.9634C109.051 56.3672 109.853 55.4697 110.487 54.2773L125.156 21.0001C127.142 16.8007 128.201 14.0206 128.33 12.6694H128.903L147.756 54.1606C148.39 55.3855 149.195 56.3057 150.167 56.9213C151.142 57.5402 152.14 57.848 153.15 57.848ZM119.572 43.335H132.266L126.106 27.6782L119.572 43.335Z" fill="#E7E7E7"/>
</g>
<mask id="mask12_379_120" style="mask-type:luminance" maskUnits="userSpaceOnUse" x="64" y="0" width="45" height="37">
<path d="M64.959 0.220459H108.627V36.1417H64.959V0.220459Z" fill="white"/>
</mask>
<g mask="url(#mask12_379_120)">
<path d="M86.5804 41.3876L86.4935 19.2731" stroke="#CD0F67" stroke-width="3.78281"/>
</g>
<path d="M93.5966 19.2601V12.3195" stroke="#CD0F67" stroke-width="3.78282"/>
<path d="M6.42396 39.1653H6.29522C6.16649 39.1653 6.05706 39.2041 5.97338 39.2819C5.89614 39.3532 5.85108 39.4472 5.84464 39.567V42.8202C5.84464 43.5299 5.62901 44.0872 5.20096 44.4922C4.76969 44.8907 4.13245 45.0884 3.28278 45.0884C2.43312 45.0884 1.77013 44.894 1.30024 44.5052C0.827133 44.1099 0.592189 43.5525 0.592189 42.8332V39.58C0.592189 39.4601 0.543912 39.3597 0.450578 39.2819C0.363681 39.2041 0.260691 39.1653 0.14161 39.1653H0V39.0616H2.57473V39.1653H2.43312C2.31082 39.1653 2.20783 39.2041 2.12415 39.2819C2.03726 39.3597 1.99542 39.4601 1.99542 39.58V42.7684C1.99542 43.3743 2.13059 43.8506 2.40738 44.1941C2.6906 44.5311 3.08002 44.6996 3.57888 44.6996C4.07451 44.6996 4.47038 44.5408 4.76326 44.22C5.05291 43.8928 5.20096 43.4424 5.20096 42.8721V39.58C5.19131 39.4504 5.14303 39.3532 5.05935 39.2819C4.97245 39.2041 4.86946 39.1653 4.75038 39.1653H4.62165V39.0616H6.42396V39.1653Z" fill="#E7E7E7"/>
<path d="M15.4296 39.0616H18.1717V39.1652H18.0043C17.8563 39.1652 17.734 39.2138 17.631 39.3078C17.5344 39.3953 17.4829 39.5119 17.4765 39.6578V43.9478C17.4765 44.3561 17.5022 44.6866 17.5537 44.9458L17.5666 45.0884H17.4894L13.0093 41.1094V44.3626C13.0093 44.5019 13.0608 44.6186 13.1638 44.7125C13.2668 44.8097 13.3891 44.8551 13.5371 44.8551H13.7045V44.9588H10.9753V44.8551H11.1298C11.2746 44.8551 11.4001 44.8097 11.5031 44.7125C11.6125 44.6186 11.6705 44.5019 11.6705 44.3626V40.0336C11.6705 39.6448 11.6447 39.3208 11.5932 39.0616L11.5675 38.9319H11.6576L16.1247 42.898V39.6578C16.1247 39.5217 16.0733 39.405 15.9703 39.3078C15.8737 39.2138 15.7514 39.1652 15.5969 39.1652H15.4296V39.0616Z" fill="#E7E7E7"/>
<path d="M22.8628 44.8551H22.9787C23.1331 44.8551 23.2651 44.8097 23.3777 44.7125C23.4872 44.6088 23.5451 44.4857 23.5451 44.3367V39.6837C23.5451 39.5379 23.4872 39.418 23.3777 39.3208C23.2651 39.2171 23.1331 39.1653 22.9787 39.1653H22.8628V39.0616H25.6306V39.1653H25.5148C25.3667 39.1653 25.238 39.2171 25.1286 39.3208C25.0159 39.418 24.9548 39.5346 24.9483 39.6707V44.3367C24.9548 44.4922 25.0159 44.6186 25.1286 44.7125C25.238 44.8097 25.3667 44.8551 25.5148 44.8551H25.6306V44.9588H22.8628V44.8551Z" fill="#E7E7E7"/>
<path d="M37.6128 45.7364C38.308 46.0021 38.9935 46.1382 39.6726 46.1382C40.3581 46.1382 40.9471 45.9373 41.4363 45.542L41.4749 45.5809C41.4556 46.0734 41.2496 46.4914 40.857 46.8381C40.4193 47.201 39.8657 47.3825 39.1963 47.3825C38.5333 47.3825 37.8059 47.1881 37.0078 46.7992C36.7149 46.6437 36.3544 46.4136 35.9264 46.1123C35.4951 45.8174 35.1186 45.5809 34.7935 45.3995C34.4749 45.218 34.1627 45.1143 33.8537 45.0884H33.828C32.8045 45.0884 31.9903 44.813 31.382 44.2589C30.7705 43.7081 30.468 42.9596 30.468 42.0166C30.468 41.0673 30.7705 40.3155 31.382 39.7614C31.9903 39.2106 32.8013 38.9319 33.8151 38.9319C34.8353 38.9319 35.656 39.2106 36.274 39.7614C36.8919 40.3155 37.2009 41.0673 37.2009 42.0166C37.2009 42.9952 36.8694 43.7631 36.2096 44.3237C35.891 44.5829 35.5144 44.7773 35.0767 44.9069C35.5305 45.0009 35.9425 45.1176 36.3126 45.2569C36.6892 45.393 37.1236 45.555 37.6128 45.7364ZM31.9613 42.0166C31.9613 42.8397 32.1287 43.491 32.4634 43.9737C32.7981 44.4598 33.2519 44.6996 33.828 44.6996C34.4009 44.6996 34.8579 44.463 35.1926 43.9867C35.5273 43.5039 35.6947 42.8461 35.6947 42.0166C35.6947 41.1871 35.5273 40.5359 35.1926 40.0595C34.8579 39.5768 34.4009 39.3337 33.828 39.3337C33.4482 39.3337 33.1199 39.4439 32.8367 39.6578C32.5535 39.8651 32.3346 40.1762 32.1802 40.5909C32.0321 40.9992 31.9613 41.4723 31.9613 42.0166Z" fill="#E7E7E7"/>
<path d="M48.4336 39.1653H48.3049C48.1761 39.1653 48.0667 39.2041 47.983 39.2819C47.9058 39.3532 47.8607 39.4472 47.8543 39.567V42.8202C47.8543 43.5299 47.6387 44.0872 47.2106 44.4922C46.7793 44.8907 46.1421 45.0884 45.2924 45.0884C44.4428 45.0884 43.7798 44.894 43.3099 44.5052C42.8368 44.1099 42.6018 43.5525 42.6018 42.8332V39.58C42.6018 39.4601 42.5536 39.3597 42.4602 39.2819C42.3733 39.2041 42.2703 39.1653 42.1513 39.1653H42.0096V39.0616H44.5844V39.1653H44.4428C44.3205 39.1653 44.2175 39.2041 44.1338 39.2819C44.0469 39.3597 44.0051 39.4601 44.0051 39.58V42.7684C44.0051 43.3743 44.1402 43.8506 44.417 44.1941C44.7002 44.5311 45.0897 44.6996 45.5885 44.6996C46.0842 44.6996 46.48 44.5408 46.7729 44.22C47.0626 43.8928 47.2106 43.4424 47.2106 42.8721V39.58C47.2009 39.4504 47.1527 39.3532 47.069 39.2819C46.9821 39.2041 46.8791 39.1653 46.76 39.1653H46.6313V39.0616H48.4336V39.1653Z" fill="#E7E7E7"/>
<path d="M57.7097 44.9588H53.1138V44.8551H53.2296C53.3745 44.8551 53.5 44.8097 53.603 44.7125C53.706 44.6186 53.7607 44.4987 53.7703 44.3496V39.6707C53.7607 39.5346 53.706 39.418 53.603 39.3208C53.5 39.2171 53.3745 39.1652 53.2296 39.1652H53.1138V39.0616H56.551C56.7216 39.0616 56.9115 39.0486 57.1175 39.0227C57.3299 38.9903 57.4779 38.9546 57.5552 38.919V40.4743H57.4651V40.3965C57.4651 40.1049 57.3814 39.8749 57.2205 39.7096C57.066 39.5476 56.8504 39.4634 56.5768 39.4634H55.1736V41.8482H56.2807C56.5028 41.8417 56.683 41.7672 56.8214 41.6278C56.9566 41.482 57.0274 41.2973 57.0274 41.0705V41.0057H57.1175V43.0795H57.0274V43.0146C57.0274 42.7036 56.9115 42.48 56.6798 42.3407C56.5671 42.2726 56.4384 42.237 56.2936 42.237H55.1736V44.57H56.3451C56.7474 44.5635 57.0917 44.4371 57.375 44.1941C57.6582 43.9446 57.8642 43.5979 57.9929 43.1572H58.083L57.7097 44.9588Z" fill="#E7E7E7"/>
<path d="M75.5284 44.8551H75.6056V44.9588H72.7348V44.8551H72.812C72.9472 44.8551 73.0438 44.8162 73.0953 44.7384C73.1532 44.6607 73.1854 44.5926 73.1854 44.5311C73.1854 44.463 73.1725 44.395 73.1468 44.3237L72.7734 43.4164H70.7008L70.3146 44.3237C70.2888 44.395 70.2759 44.463 70.2759 44.5311C70.2759 44.6023 70.3049 44.6736 70.3661 44.7514C70.424 44.8227 70.5205 44.8551 70.6493 44.8551H70.7265V44.9588H68.7826V44.8551H68.8598C68.9982 44.8551 69.1302 44.8162 69.2589 44.7384C69.3941 44.6542 69.5067 44.5246 69.5936 44.3496L71.6148 39.9818C71.898 39.3337 72.0461 38.9384 72.0654 38.7894H72.1555L74.7688 44.3107C74.8525 44.5019 74.9652 44.6412 75.1036 44.7255C75.2387 44.813 75.3803 44.8551 75.5284 44.8551ZM70.8681 43.0276H72.6061L71.7435 40.9798L70.8681 43.0276Z" fill="#E7E7E7"/>
<path d="M83.3179 45.0884C82.2172 45.0787 81.3546 44.8097 80.7302 44.2719C80.1123 43.7275 79.8033 42.9758 79.8033 42.0166C79.8033 41.0511 80.1123 40.2928 80.7302 39.7485C81.3546 39.2041 82.2172 38.9319 83.3179 38.9319C84.174 38.9319 84.9045 39.0842 85.5064 39.3856V40.9539H85.442C85.2779 40.3674 85.0236 39.9526 84.6825 39.7096C84.3477 39.4601 83.9229 39.3337 83.408 39.3337C82.7192 39.3337 82.1914 39.5735 81.8245 40.0466C81.464 40.5229 81.2838 41.1709 81.2838 41.9907C81.2838 42.8137 81.464 43.465 81.8245 43.9478C82.1914 44.4501 82.6935 44.6996 83.3307 44.6996C83.7942 44.6996 84.174 44.6283 84.4765 44.4792C84.7758 44.3334 85.0107 44.1034 85.1845 43.7923C85.3648 43.4748 85.4967 43.0406 85.5836 42.4962H85.648L85.7639 43.9737C85.5579 44.3107 85.2489 44.5829 84.8369 44.7903C84.425 44.9879 83.9165 45.0884 83.3179 45.0884Z" fill="#E7E7E7"/>
<path d="M94.1301 45.0884C93.0294 45.0787 92.1669 44.8097 91.5425 44.2719C90.9246 43.7275 90.6156 42.9758 90.6156 42.0166C90.6156 41.0511 90.9246 40.2928 91.5425 39.7485C92.1669 39.2041 93.0294 38.9319 94.1301 38.9319C94.9862 38.9319 95.7168 39.0842 96.3186 39.3856V40.9539H96.2543C96.0901 40.3674 95.8359 39.9526 95.4947 39.7096C95.16 39.4601 94.7352 39.3337 94.2202 39.3337C93.5315 39.3337 93.0037 39.5735 92.6368 40.0466C92.2763 40.5229 92.0961 41.1709 92.0961 41.9907C92.0961 42.8137 92.2763 43.465 92.6368 43.9478C93.0037 44.4501 93.5057 44.6996 94.143 44.6996C94.6064 44.6996 94.9862 44.6283 95.2887 44.4792C95.5881 44.3334 95.823 44.1034 95.9968 43.7923C96.177 43.4748 96.309 43.0406 96.3959 42.4962H96.4602L96.5761 43.9737C96.3701 44.3107 96.0612 44.5829 95.6492 44.7903C95.2372 44.9879 94.7287 45.0884 94.1301 45.0884Z" fill="#E7E7E7"/>
<path d="M101.441 42.0166C101.441 41.0673 101.753 40.3155 102.38 39.7614C103.005 39.2106 103.838 38.9319 104.878 38.9319C105.924 38.9319 106.761 39.2106 107.388 39.7614C108.022 40.3155 108.341 41.0673 108.341 42.0166C108.341 42.9596 108.022 43.7081 107.388 44.2589C106.761 44.813 105.927 45.0884 104.891 45.0884C103.851 45.0884 103.014 44.813 102.38 44.2589C101.753 43.7081 101.441 42.9596 101.441 42.0166ZM102.934 42.0166C102.934 42.8397 103.108 43.491 103.462 43.9737C103.813 44.4598 104.286 44.6996 104.878 44.6996C105.476 44.6996 105.953 44.4598 106.307 43.9737C106.658 43.491 106.835 42.8397 106.835 42.0166C106.835 41.1871 106.658 40.5359 106.307 40.0595C105.953 39.5768 105.476 39.3337 104.878 39.3337C104.286 39.3337 103.813 39.5768 103.462 40.0595C103.108 40.5359 102.934 41.1871 102.934 42.0166Z" fill="#E7E7E7"/>
<path d="M119.514 39.1653H119.385C119.256 39.1653 119.147 39.2041 119.063 39.2819C118.986 39.3532 118.941 39.4472 118.934 39.567V42.8202C118.934 43.5299 118.719 44.0872 118.291 44.4922C117.859 44.8907 117.222 45.0884 116.372 45.0884C115.523 45.0884 114.86 44.894 114.39 44.5052C113.917 44.1099 113.682 43.5525 113.682 42.8332V39.58C113.682 39.4601 113.634 39.3597 113.54 39.2819C113.453 39.2041 113.35 39.1653 113.231 39.1653H113.09V39.0616H115.664V39.1653H115.523C115.4 39.1653 115.297 39.2041 115.214 39.2819C115.127 39.3597 115.085 39.4601 115.085 39.58V42.7684C115.085 43.3743 115.22 43.8506 115.497 44.1941C115.78 44.5311 116.17 44.6996 116.669 44.6996C117.164 44.6996 117.56 44.5408 117.853 44.22C118.143 43.8928 118.291 43.4424 118.291 42.8721V39.58C118.281 39.4504 118.233 39.3532 118.149 39.2819C118.062 39.2041 117.959 39.1653 117.84 39.1653H117.711V39.0616H119.514V39.1653Z" fill="#E7E7E7"/>
<path d="M128.519 39.0616H131.261V39.1652H131.094C130.946 39.1652 130.824 39.2138 130.721 39.3078C130.624 39.3953 130.573 39.5119 130.566 39.6578V43.9478C130.566 44.3561 130.592 44.6866 130.643 44.9458L130.656 45.0884H130.579L126.099 41.1094V44.3626C126.099 44.5019 126.15 44.6186 126.253 44.7125C126.356 44.8097 126.479 44.8551 126.627 44.8551H126.794V44.9588H124.065V44.8551H124.219C124.364 44.8551 124.49 44.8097 124.593 44.7125C124.702 44.6186 124.76 44.5019 124.76 44.3626V40.0336C124.76 39.6448 124.734 39.3208 124.683 39.0616L124.657 38.9319H124.747L129.214 42.898V39.6578C129.214 39.5217 129.163 39.405 129.06 39.3078C128.963 39.2138 128.841 39.1652 128.687 39.1652H128.519V39.0616Z" fill="#E7E7E7"/>
<path d="M141.269 40.4613V40.3706C141.269 40.0855 141.185 39.8651 141.025 39.7096C140.87 39.5476 140.654 39.4601 140.381 39.4504H139.248V44.3496C139.254 44.4987 139.312 44.6186 139.415 44.7125C139.518 44.8097 139.641 44.8551 139.789 44.8551H139.892V44.9588H137.201V44.8551H137.291C137.446 44.8551 137.574 44.8097 137.677 44.7125C137.78 44.6186 137.832 44.4922 137.832 44.3367V39.4504H136.712C136.429 39.4601 136.203 39.5476 136.042 39.7096C135.888 39.8651 135.811 40.0855 135.811 40.3706V40.4613H135.721V38.906C135.804 38.9417 135.952 38.9773 136.158 39.0097C136.371 39.0356 136.564 39.0486 136.738 39.0486H140.342C140.625 39.0486 140.857 39.0324 141.037 38.9968C141.224 38.9546 141.333 38.9255 141.359 38.906V40.4613H141.269Z" fill="#E7E7E7"/>
<path d="M145.955 44.8551H146.071C146.225 44.8551 146.357 44.8097 146.47 44.7125C146.579 44.6088 146.637 44.4857 146.637 44.3367V39.6837C146.637 39.5379 146.579 39.418 146.47 39.3208C146.357 39.2171 146.225 39.1653 146.071 39.1653H145.955V39.0616H148.723V39.1653H148.607C148.459 39.1653 148.33 39.2171 148.221 39.3208C148.108 39.418 148.047 39.5346 148.04 39.6707V44.3367C148.047 44.4922 148.108 44.6186 148.221 44.7125C148.33 44.8097 148.459 44.8551 148.607 44.8551H148.723V44.9588H145.955V44.8551Z" fill="#E7E7E7"/>
<path d="M157.873 39.0616H160.615V39.1652H160.447C160.299 39.1652 160.177 39.2138 160.074 39.3078C159.977 39.3953 159.926 39.5119 159.919 39.6578V43.9478C159.919 44.3561 159.945 44.6866 159.997 44.9458L160.01 45.0884H159.932L155.452 41.1094V44.3626C155.452 44.5019 155.504 44.6186 155.607 44.7125C155.71 44.8097 155.832 44.8551 155.98 44.8551H156.147V44.9588H153.418V44.8551H153.573C153.718 44.8551 153.843 44.8097 153.946 44.7125C154.055 44.6186 154.113 44.5019 154.113 44.3626V40.0336C154.113 39.6448 154.088 39.3208 154.036 39.0616L154.01 38.9319H154.101L158.568 42.898V39.6578C158.568 39.5217 158.516 39.405 158.413 39.3078C158.317 39.2138 158.194 39.1652 158.04 39.1652H157.873V39.0616Z" fill="#E7E7E7"/>
<path d="M166.168 44.2589C165.592 43.7145 165.306 42.9628 165.306 42.0037C165.306 41.0446 165.592 40.2928 166.168 39.7485C166.751 39.2041 167.552 38.9319 168.576 38.9319C169.039 38.9319 169.49 38.9773 169.927 39.0616C170.372 39.1393 170.729 39.2495 170.996 39.3856V40.9539H170.919C170.635 39.8749 169.953 39.3337 168.872 39.3337C168.193 39.3337 167.678 39.5735 167.327 40.0466C166.973 40.5229 166.799 41.1839 166.799 42.0296C166.799 42.8786 166.957 43.5331 167.275 43.9997C167.6 44.4663 168.061 44.6996 168.653 44.6996C168.978 44.6996 169.271 44.6218 169.528 44.4663C169.786 44.3107 169.956 44.0904 170.043 43.8053L170.056 42.6258C170.056 42.4962 170.017 42.399 169.94 42.3277C169.863 42.2597 169.76 42.224 169.631 42.224H169.49V42.1463H172V42.224H171.884C171.591 42.224 171.446 42.3601 171.446 42.6258V43.9349C171.221 44.2297 170.841 44.4987 170.301 44.7384C169.76 44.9717 169.168 45.0884 168.524 45.0884C167.536 45.0787 166.751 44.8032 166.168 44.2589Z" fill="#E7E7E7"/>
</svg>
